<?xml version="1.0" encoding="utf-8"?>
<!-- Generator: Adobe Illustrator 20.1.0, SVG Export Plug-In . SVG Version: 6.00 Build 0)  -->
<svg version="1.1" id="Layer_1" xmlns="http://www.w3.org/2000/svg" xmlns:xlink="http://www.w3.org/1999/xlink" x="0px" y="0px"
	 viewBox="0 0 1474.3 245.7" style="enable-background:new 0 0 1474.3 245.7;" xml:space="preserve">
<style type="text/css">
	.st0{fill:#009FC6;}
	.st1{fill:#F68F83;}
	.st2{font-family:'Apercu-Light';}
	.st3{font-size:180.5053px;}
</style>
<g transform="translate(0,-952.36216)">
	<path class="st0" d="M186.4,988.6c-1.3,0-2.5,0.7-3.2,1.9l-44.2,1.6c-0.7-0.8-1.7-1.2-2.7-1.2c-1.5,0-2.8,0.9-3.4,2.3l-57.6,26.6
		c-0.4-0.2-0.9-0.3-1.4-0.3c-1.9,0-3.5,1.5-3.6,3.5l-16.4,17.5l-3.3,3.1c-0.2-0.1-0.5-0.1-0.7-0.1c-2,0-3.6,1.6-3.6,3.6v0
		c0,1,0.4,1.9,1.1,2.6l-8.7,31.3c-1.1,0.7-1.8,1.8-1.8,3.1c0,1.8,1.2,3.3,3,3.6l13.1,31.9c-0.5,0.6-0.8,1.5-0.8,2.3
		c0,2,1.6,3.6,3.6,3.6c0,0,0,0,0,0c1.1,0,2.2-0.5,2.9-1.4l30.9,7c0.2,1.8,1.8,3.2,3.6,3.2c1.2,0,2.2-0.5,2.9-1.5l22.4,6.2
		c0.6,1.3,1.9,2.1,3.3,2.1c2,0,3.6-1.6,3.6-3.6c0-0.1,0-0.2,0-0.4l10-8.7c0.5,0.3,1.1,0.4,1.7,0.4c1.2,0,2.3-0.6,3-1.5l12.1,4.1
		c0.4,1.6,1.9,2.6,3.5,2.6c0.3,0,0.5,0,0.8-0.1l23.6,24.4c0,0.2-0.1,0.4-0.1,0.6c0,2,1.6,3.6,3.6,3.6c0.3,0,0.5,0,0.7-0.1l11.3,9.9
		c-0.1,0.3-0.1,0.6-0.1,0.9c0,2,1.6,3.6,3.6,3.6c1.9,0,3.5-1.5,3.6-3.4l10.4-2.2c0.7,0.9,1.8,1.5,2.9,1.5c2,0,3.6-1.6,3.6-3.6
		c0,0,0,0,0,0c0-2-1.6-3.6-3.6-3.6c-0.5,0-0.9,0.1-1.3,0.2l-6.4-13.5c0.4-0.6,0.6-1.3,0.6-2c0-0.3,0-0.5-0.1-0.8l4.1-6.2
		c0.4,0.1,0.7,0.2,1.1,0.2c1.2,0,2.3-0.6,3-1.6l13.1,1c0.6,1.4,1.9,2.2,3.4,2.2c2,0,3.6-1.6,3.6-3.6c0-0.1,0-0.2,0-0.3l7.4-11.7
		c0.8-0.1,1.6-0.6,2.1-1.2h6.9c0.6,1.3,1.9,2.2,3.3,2.2c2,0,3.6-1.6,3.6-3.6c0-1-0.4-2-1.2-2.7l12.6-19c1.8-0.2,3.2-1.8,3.2-3.6
		c0-1.7-1.1-3.1-2.7-3.5l-3.6-23.6c1.1-0.7,1.8-1.8,1.8-3.1c0-2-1.6-3.6-3.6-3.6c-0.1,0-0.3,0-0.4,0l-24.1-42.3
		c0.4-0.6,0.6-1.2,0.6-1.9c0-2-1.6-3.6-3.6-3.6c-0.6,0-1.3,0.2-1.8,0.5L190,991.5C189.6,989.8,188.1,988.6,186.4,988.6L186.4,988.6z
		 M182.9,993.2c0.4,1.4,1.6,2.5,3.1,2.7l5.5,24.2L140,995c0-0.1,0-0.1,0-0.2L182.9,993.2L182.9,993.2z M189.4,994.3l44.4,26.9
		l-36,0.3c-0.6-1.2-1.9-2-3.2-2c-0.1,0-0.3,0-0.4,0l-5.5-24.4C188.9,994.9,189.2,994.7,189.4,994.3L189.4,994.3z M133.1,996.2
		c0.2,0.4,0.5,0.8,0.8,1.1l-18.9,29.3c-0.4-0.1-0.7-0.2-1.1-0.2c-1.4,0-2.6,0.8-3.2,2l-33.2-5.9c0-0.2-0.1-0.4-0.2-0.5L133.1,996.2
		L133.1,996.2z M138.7,997.5l48.1,23.4l-38.6,4.2C148.2,1025.1,138.7,997.5,138.7,997.5z M136.2,998.7l9.2,26.7l-28.2,3.1
		c0-0.1-0.1-0.1-0.1-0.2L136.2,998.7L136.2,998.7z M190.3,1023.2l-34.8,21c-0.3-0.2-0.6-0.4-1-0.5l-5.5-16
		C149.1,1027.7,190.3,1023.2,190.3,1023.2z M235.8,1024c0.1,0.7,0.4,1.3,0.8,1.9l-7.3,19.2l-31.3-20.8c0,0,0,0,0,0L235.8,1024
		L235.8,1024z M77,1025.1l33.4,5.9c0.1,0.4,0.3,0.7,0.5,1L84,1059.8c-0.1,0-0.2,0-0.3,0c-0.2,0-0.5,0-0.7,0.1c-0.2-1-0.4-2-0.7-3.4
		c-0.8-4-1.9-9.2-2.9-14.4c-1.4-6.7-2.5-12.2-3.3-16.1C76.5,1025.8,76.8,1025.5,77,1025.1L77,1025.1z M191.1,1026l-16.2,49.2
		c-0.4,0.1-0.7,0.2-1,0.4l-17.6-25.9c0.7-0.7,1-1.6,1-2.5c0-0.3,0-0.5-0.1-0.8L191.1,1026L191.1,1026z M196.3,1026.4l32,21.3
		l-9.6,25.2c0,0-0.1,0-0.1,0c-0.4,0-0.9,0.1-1.3,0.2L196.3,1026.4C196.2,1026.4,196.2,1026.4,196.3,1026.4L196.3,1026.4z
		 M72.6,1026.6c0.3,0.1,0.5,0.2,0.8,0.2c0.8,3.8,1.9,9.3,3.3,15.9c1.1,5.2,2.1,10.4,2.9,14.3c0.2,1.1,0.4,1.9,0.5,2.8l-26.7-13.2
		c-0.1-0.4-0.2-0.8-0.4-1.1l2.8-3L72.6,1026.6L72.6,1026.6z M240.3,1027l23.4,40.9l-32-21.3l7.4-19.5c0.1,0,0.2,0,0.3,0
		C239.7,1027.1,240,1027.1,240.3,1027L240.3,1027z M193.5,1027.1l21.7,47.9l-36.1,2.4c-0.3-0.8-0.8-1.4-1.5-1.9L193.5,1027.1z
		 M146.3,1028l5.5,16c-0.4,0.2-0.8,0.5-1.1,0.9l-32.4-13.8L146.3,1028z M115.9,1033l33.9,14.5l-19,10.6c-0.6-0.5-1.5-0.8-2.3-0.8
		c-0.1,0-0.2,0-0.3,0L115.9,1033C115.9,1033,115.9,1033,115.9,1033L115.9,1033z M113.2,1033.7l12.6,24.8c-0.6,0.7-0.9,1.5-0.9,2.4
		c0,0.8,0.3,1.6,0.8,2.2l-17.7,28.3c-0.1,0-0.1,0-0.2,0c-0.5,0-1,0.1-1.4,0.3l-19.9-25.8c0.6-0.7,0.9-1.5,0.9-2.4
		c0-0.8-0.3-1.6-0.8-2.3L113.2,1033.7L113.2,1033.7z M230.6,1049.2l32.6,21.7l-41.8,2.7L230.6,1049.2z M52.8,1049.3l26.2,12.9
		l-36.3,19.1c-0.3-0.3-0.7-0.5-1.2-0.6l8.4-30C51.1,1050.8,52.2,1050.3,52.8,1049.3L52.8,1049.3z M151.1,1049.9c0.7,0.6,1.6,1,2.5,1
		c0,0,0,0,0.1,0l18.5,27.2c-0.1,0.2-0.1,0.5-0.1,0.7c0,0.3,0,0.6,0.1,0.9l-12.4,18.9c-0.3,0-0.6,0-0.9,0.1l-27.2-35.8
		c0.4-0.6,0.6-1.3,0.6-1.9c0-0.1,0-0.3,0-0.4L151.1,1049.9L151.1,1049.9z M129.4,1064.4l27.3,35.9c0,0-0.1,0.1-0.1,0.1l-45.3-6.3
		c-0.2-0.6-0.4-1.1-0.8-1.5l17.6-28.1c0.2,0,0.3,0,0.5,0C128.8,1064.5,129.1,1064.5,129.4,1064.4L129.4,1064.4z M80.1,1064.8
		l-13.3,29c-0.6,0.2-1.1,0.5-1.6,0.9l-21.2-10.5c0-0.1,0-0.2,0-0.4C44,1083.8,80.1,1064.8,80.1,1064.8z M82,1067.3l6.7,45L71,1098.9
		c0.2-0.5,0.4-1.1,0.4-1.6c0-1.3-0.7-2.4-1.7-3.1C69.7,1094.2,82,1067.3,82,1067.3z M84.9,1068.3l19.5,25.2
		c-0.2,0.4-0.3,0.9-0.3,1.4c0,1.8,1.3,3.3,3.1,3.6l12.6,35.9c-0.3,0.2-0.6,0.4-0.8,0.7l-27.2-20.6L84.9,1068.3L84.9,1068.3z
		 M264.1,1073.6l-7.9,20.1l-33.9-16.9c0-0.1,0-0.1,0-0.2c0-0.1,0-0.2,0-0.2L264.1,1073.6L264.1,1073.6z M266.3,1075.4l3.5,23
		c-0.6,0.3-1.1,0.8-1.4,1.4l-9.8-4.9L266.3,1075.4L266.3,1075.4z M214.8,1077.9l-4.8,30.9l-31-28.5c0,0,0,0,0,0L214.8,1077.9
		L214.8,1077.9z M217.2,1079.9c0.4,0.2,0.9,0.3,1.4,0.3c0.4,0,0.7-0.1,1.1-0.2l19.8,26.2l-25.8,4.1c-0.3-0.3-0.7-0.6-1.1-0.7
		L217.2,1079.9L217.2,1079.9z M223.3,1080.3l31.8,15.9l-3.2,8l-9.4,1.5L223.3,1080.3z M177,1082.1l31.1,28.7
		c-0.4,0.6-0.6,1.3-0.6,2.1c0,0,0,0.1,0,0.1l-24.8,15.1c-0.4-0.4-1-0.7-1.5-0.8l-4.9-44.9C176.5,1082.3,176.7,1082.2,177,1082.1
		L177,1082.1z M173.5,1082.6l4.8,43.7l-15.5-22.2c0.4-0.6,0.6-1.3,0.6-2c0-1-0.4-1.9-1.1-2.6L173.5,1082.6z M43.1,1086.7l21,10.4
		c0,0.1,0,0.1,0,0.2c0,0.9,0.3,1.7,0.9,2.4l-9.5,18.7c-0.1,0-0.1,0-0.2,0l-12.8-31.1C42.7,1087.1,42.9,1086.9,43.1,1086.7
		L43.1,1086.7z M110.9,1096.8l44.9,6.3l-17.6,18.8c-0.4-0.2-0.8-0.2-1.3-0.2c-0.9,0-1.7,0.3-2.4,0.9L110.9,1096.8
		C110.9,1096.8,110.9,1096.8,110.9,1096.8L110.9,1096.8z M257.6,1097.4l8.9,4.5l-11.4,1.8C255.1,1103.7,257.6,1097.4,257.6,1097.4z
		 M110.8,1100.7l22.6,24.5c0,0,0,0,0,0c0,0.4,0.1,0.8,0.2,1.2l-9.6,8.4c-0.4-0.4-1-0.6-1.5-0.7L110.8,1100.7L110.8,1100.7z
		 M68.9,1100.7l20.3,15.4l1.7,11.7c-0.3,0.2-0.6,0.5-0.8,0.8l-30.9-7c-0.1-0.9-0.5-1.7-1.2-2.3l9.3-18.3c0.1,0,0.2,0,0.3,0
		C68.1,1100.9,68.5,1100.9,68.9,1100.7L68.9,1100.7z M269.2,1104.2c0,0,0.1,0.1,0.1,0.1l-12.5,18.9c-0.3,0-0.5,0.1-0.8,0.1l-5.7-7.5
		l3.7-9.2L269.2,1104.2L269.2,1104.2z M157.3,1105.5l-3.6,21.8c-0.6,0.3-1.1,0.8-1.4,1.4l-11.8-4c-0.1-0.3-0.2-0.7-0.3-1
		L157.3,1105.5L157.3,1105.5z M160.6,1105.7l16.2,23.3l-17.7,0.7c-0.3-1.3-1.3-2.3-2.5-2.7l3.4-21.2
		C160.2,1105.8,160.4,1105.7,160.6,1105.7L160.6,1105.7z M250.8,1107.1l-2.4,6.2l-3.9-5.2L250.8,1107.1z M241.4,1108.6l5.8,7.7
		l-2.4,6c-0.3-0.1-0.5-0.1-0.8-0.1c-1.1,0-2.1,0.5-2.8,1.3l-24.2-11L241.4,1108.6L241.4,1108.6z M215.4,1114.8l24.9,11.3
		c0.1,1.1,0.6,2,1.4,2.7l-6.1,9.7c-0.6-0.4-1.3-0.7-2.1-0.7c-0.2,0-0.4,0-0.6,0L215.4,1114.8L215.4,1114.8z M208.6,1115.5
		c0.4,0.4,0.9,0.7,1.5,0.9l1.9,20.5c-1,0.7-1.6,1.8-1.6,3c0,0.6,0.1,1.2,0.4,1.7l-3.7,5.6c-0.6-0.3-1.2-0.5-1.8-0.5
		c-0.7,0-1.4,0.2-2.1,0.6l-19.6-15.3c0.1-0.4,0.2-0.8,0.2-1.2c0-0.1,0-0.2,0-0.3L208.6,1115.5L208.6,1115.5z M212.9,1116l17.7,23.3
		c-0.2,0.3-0.3,0.5-0.5,0.8l-12.5-0.9c-0.3-1.5-1.5-2.7-3-2.9L212.9,1116C212.9,1116.1,212.9,1116.1,212.9,1116L212.9,1116z
		 M92.4,1118.5l22.1,16.7l-17.7-4.9c-0.2-1.6-1.5-2.9-3.1-3.1C93.6,1127.2,92.4,1118.5,92.4,1118.5z M249.1,1118.9l4.7,6.2
		c-0.1,0.2-0.2,0.3-0.2,0.5h-6c-0.1-0.6-0.2-1.1-0.5-1.6L249.1,1118.9L249.1,1118.9z M176.7,1131.7c0.4,1.4,1.6,2.5,3,2.7l1.4,21.4
		l-22.5-23.3c0,0,0,0,0-0.1L176.7,1131.7L176.7,1131.7z M182.5,1134.5l19.2,15c0,0.2-0.1,0.5-0.1,0.7c0,0.1,0,0.2,0,0.3l-15.4,6.1
		c-0.6-0.7-1.5-1.1-2.4-1.2L182.5,1134.5L182.5,1134.5z M202.9,1153c0.1,0.1,0.3,0.2,0.4,0.3l-2.5,6.7c-1.1,0.1-2.1,0.6-2.7,1.5
		l-11-2c0-0.1,0-0.2,0-0.3L202.9,1153L202.9,1153z M206,1153.8l5.7,12l-7-2.6c-0.1-0.9-0.6-1.8-1.3-2.4L206,1153.8
		C206,1153.8,206,1153.8,206,1153.8L206,1153.8z M188.2,1162.5l9.2,1.7c0.1,0.9,0.7,1.8,1.4,2.4l-0.4,3.3c-0.4,0.1-0.9,0.2-1.3,0.5
		L188.2,1162.5L188.2,1162.5z M203.9,1165.9l7.9,2.9l-10,2.2c-0.2-0.2-0.4-0.4-0.7-0.6l0.4-3.1
		C202.5,1167.1,203.3,1166.6,203.9,1165.9L203.9,1165.9z"/>
</g>
<text transform="matrix(1 0 0 1 358.6034 185.7335)" class="st1 st2 st3">Eternal Cloud</text>
</svg>
